<svg width="13" height="12" viewBox="0 0 13 12" fill="none" xmlns="http://www.w3.org/2000/svg">
<path d="M11.6667 9.33333C11.9235 9.33346 12.1704 9.43238 12.3563 9.60961C12.5421 9.78683 12.6527 10.0288 12.665 10.2853C12.6774 10.5418 12.5905 10.7932 12.4225 10.9875C12.2546 11.1817 12.0183 11.3039 11.7627 11.3287L11.6667 11.3333H1C0.743189 11.3332 0.49627 11.2343 0.310409 11.0571C0.124548 10.8798 0.013992 10.6379 0.00165049 10.3814C-0.010691 10.1249 0.0761279 9.87345 0.244117 9.6792C0.412106 9.48495 0.648387 9.36278 0.904 9.338L1 9.33333H11.6667ZM11.6667 4.66667C11.9319 4.66667 12.1862 4.77202 12.3738 4.95956C12.5613 5.1471 12.6667 5.40145 12.6667 5.66667C12.6667 5.93188 12.5613 6.18624 12.3738 6.37377C12.1862 6.56131 11.9319 6.66667 11.6667 6.66667H1C0.734783 6.66667 0.48043 6.56131 0.292893 6.37377C0.105357 6.18624 0 5.93188 0 5.66667C0 5.40145 0.105357 5.1471 0.292893 4.95956C0.48043 4.77202 0.734783 4.66667 1 4.66667H11.6667ZM11.6667 0C11.9319 0 12.1862 0.105357 12.3738 0.292893C12.5613 0.48043 12.6667 0.734784 12.6667 1C12.6667 1.26522 12.5613 1.51957 12.3738 1.70711C12.1862 1.89464 11.9319 2 11.6667 2H1C0.734783 2 0.48043 1.89464 0.292893 1.70711C0.105357 1.51957 0 1.26522 0 1C0 0.734784 0.105357 0.48043 0.292893 0.292893C0.48043 0.105357 0.734783 0 1 0H11.6667Z" fill="black"/>
</svg>
